<?xml version="1.0" ?>

<!-- Uploaded to: SVG Repo, www.svgrepo.com, Generator: SVG Repo Mixer Tools -->
<svg width="800px" height="800px" viewBox="0 0 32 32" id="svg5" version="1.1" xmlns="http://www.w3.org/2000/svg" xmlns:svg="http://www.w3.org/2000/svg">

<defs id="defs2"/>

<g id="layer1" transform="translate(-156,-292)">

<path d="m 173.85547,301.89648 a 1,1 0 0 0 -0.92578,0.79297 1,1 0 0 0 0.77343,1.1836 c 1.63286,0.34401 2.66043,1.92184 2.31641,3.55468 a 1,1 0 0 0 0.77344,1.1836 1,1 0 0 0 1.18359,-0.77149 c 0.56686,-2.6905 -1.17081,-5.35698 -3.86133,-5.92382 a 1,1 0 0 0 -0.25976,-0.0195 z" id="path453461" style="color:#000000;fill:#000000;fill-rule:evenodd;stroke-linecap:round;stroke-linejoin:round;stroke-miterlimit:4.1;-inkscape-stroke:none"/>

<path d="m 174.62695,297.98633 a 1,1 0 0 0 -0.87109,0.78906 1,1 0 0 0 0.77148,1.18359 c 3.79454,0.79946 6.20571,4.49845 5.40625,8.29297 a 1,1 0 0 0 0.77344,1.18555 1,1 0 0 0 1.18359,-0.77344 c 1.0223,-4.85218 -2.09897,-9.63982 -6.95117,-10.66211 a 1,1 0 0 0 -0.3125,-0.0156 z" id="path453441" style="color:#000000;fill:#000000;fill-rule:evenodd;stroke-linecap:round;stroke-linejoin:round;stroke-miterlimit:4.1;-inkscape-stroke:none"/>

<path d="m 175.37305,294.08398 a 0.99999499,0.99999499 0 0 0 -0.79297,0.77735 0.99999499,0.99999499 0 0 0 0.77148,1.18359 c 5.95621,1.2549 9.75098,7.07505 8.4961,13.03125 a 0.99999499,0.99999499 0 0 0 0.77343,1.18555 0.99999499,0.99999499 0 0 0 1.1836,-0.77344 c 1.47772,-7.01386 -3.02716,-13.92266 -10.04102,-15.40039 a 0.99999499,0.99999499 0 0 0 -0.39062,-0.004 z" id="path453433" style="color:#000000;fill:#000000;fill-rule:evenodd;stroke-linecap:round;stroke-linejoin:round;stroke-miterlimit:4.1;-inkscape-stroke:none"/>

<path d="m 162.98047,294.01172 c -0.98492,-0.0178 -1.90172,0.43314 -2.45117,1.34375 -3.28962,5.4519 -3.39002,12.29826 -0.18164,17.87305 a 1.0001,1.0001 0 0 0 0.002,0.006 c 3.23676,5.55933 9.22998,8.89168 15.60742,8.77539 1.21528,-0.0221 2.15131,-0.75945 2.57227,-1.83399 l 1.4375,-3.66797 c 0.51477,-1.31399 0.12221,-2.82162 -0.96875,-3.71679 l -2.58008,-2.11524 c -1.32752,-1.08929 -3.35959,-0.72448 -4.22656,0.75781 l -0.9668,1.65039 c -1.64502,-0.85898 -3.11472,-2.085 -4.08984,-3.76562 v -0.002 c -1.01959,-1.76568 -1.33095,-3.74687 -1.19727,-5.6836 l 1.83008,0.11719 c 1.70931,0.1098 3.11184,-1.44331 2.83008,-3.13281 l -0.54688,-3.2793 c -0.2321,-1.39165 -1.3395,-2.48347 -2.73437,-2.69531 l -3.91016,-0.59375 c -0.14259,-0.0217 -0.28508,-0.0346 -0.42578,-0.0371 z m 0.125,2.01367 3.91015,0.5957 c 0.54734,0.0831 0.97144,0.50081 1.0625,1.04688 l 0.54688,3.2793 c 0.0774,0.46424 -0.26078,0.83681 -0.73047,0.80664 l -2.88867,-0.18555 a 1.0001,1.0001 0 0 0 -1.05078,0.83984 c -0.42446,2.65227 0.0322,5.45735 1.44922,7.91016 a 1.0001,1.0001 0 0 0 0,0.002 c 1.35385,2.33418 3.42087,4.07747 5.78711,5.06641 a 1.0001,1.0001 0 0 0 1.24804,-0.41797 l 1.47852,-2.52734 c 0.26508,-0.45323 0.82652,-0.55377 1.23242,-0.22071 l 2.57813,2.11719 c 0.42703,0.3504 0.57649,0.92512 0.375,1.43945 l -1.43555,3.66797 c -0.0693,0.177 -0.61768,0.56212 -0.74609,0.56446 -5.65845,0.10318 -10.97213,-2.85101 -13.84376,-7.78321 -2.84321,-4.94487 -2.75158,-11.00379 0.16407,-15.83594 0.0663,-0.1099 0.67509,-0.39381 0.86328,-0.36523 z" id="path453419" style="color:#000000;fill:#000000;fill-rule:evenodd;stroke-linecap:round;stroke-linejoin:round;stroke-miterlimit:4.1;-inkscape-stroke:none"/>

</g>

</svg>