<?xml version="1.0" ?><!-- Uploaded to: SVG Repo, www.svgrepo.com, Generator: SVG Repo Mixer Tools -->
<svg width="800px" height="800px" viewBox="0 0 64 64" id="icons" xmlns="http://www.w3.org/2000/svg"><defs><style>.cls-1{fill:#231f20;}</style></defs><title/><path class="cls-1" d="M58,28H50V10a2,2,0,0,0-3-1.73L38,13.5l-10-5.27a2,2,0,0,0-1.89,0l-10,5.46L7,8.29a2,2,0,0,0-2,0A2,2,0,0,0,4,10V49a7,7,0,0,0,7,7H52a2.07,2.07,0,0,0,.35,0c.21,0,.43,0,.65,0a7,7,0,0,0,7-7V30A2,2,0,0,0,58,28ZM11,52a3,3,0,0,1-3-3V13.53l7,4.18a2,2,0,0,0,2,.05L27,12.27l10.05,5.28a2,2,0,0,0,1.93,0l7-4V49a6.88,6.88,0,0,0,.68,3Zm45-3a3,3,0,0,1-6,0V32h6Z"/><path class="cls-1" d="M38,28H16a2,2,0,0,0,0,4H38a2,2,0,0,0,0-4Z"/><path class="cls-1" d="M38,40H16a2,2,0,0,0,0,4H38a2,2,0,0,0,0-4Z"/></svg>