<?xml version="1.0" encoding="UTF-8"?>
<svg version="1.1" xmlns="http://www.w3.org/2000/svg" width="2048" height="2048">
<path d="M0 0 C0.70878296 0.2475 1.41756592 0.495 2.14782715 0.75 C40.43006099 14.14060887 77.58620952 30.14666332 114 48 C115.13614746 48.55445801 116.27229492 49.10891602 117.44287109 49.68017578 C132.6830857 57.13305092 147.6234708 64.94596279 162.3046875 73.44726562 C164.94331988 74.96734732 167.5938029 76.46398456 170.25 77.953125 C217.59088622 104.55483032 262.17890077 136.2022328 304.19580078 170.52783203 C305.78273046 171.82271511 307.37348737 173.11290478 308.96484375 174.40234375 C319.71714576 183.13365507 330.18134322 192.1568736 340.34765625 201.5625 C342.47490534 203.51743878 344.62272252 205.42882045 346.8125 207.3125 C359.3946863 218.26340909 371.2086022 230.04831327 382.98242188 241.85205078 C385.5209885 244.39603328 388.0649333 246.93455128 390.609375 249.47265625 C392.25032112 251.1142624 393.89095744 252.75617831 395.53125 254.3984375 C396.6532782 255.51742935 396.6532782 255.51742935 397.79797363 256.6590271 C401.83372328 260.71264769 405.70808162 264.85046808 409.43154907 269.19343567 C412.1488733 272.32328879 415.02432569 275.30463262 417.875 278.3125 C422.69186444 283.43426138 427.28445572 288.64928655 431.67578125 294.14453125 C434.45732653 297.5618583 437.34836519 300.87220061 440.25 304.1875 C450.62931987 316.0882681 460.47585103 328.40623377 470 341 C470.68545898 341.90371338 470.68545898 341.90371338 471.38476562 342.82568359 C474.9499965 347.53067873 478.48104945 352.26032607 482 357 C482.71567139 357.9580957 482.71567139 357.9580957 483.44580078 358.93554688 C491.41136362 369.62867042 498.85918317 380.65604474 506.25 391.75 C506.71581482 392.44906464 507.18162964 393.14812927 507.66156006 393.86837769 C527.95558199 424.35860496 546.88290547 455.60595698 564 488 C564.320755 488.60521484 564.64151001 489.21042969 564.97198486 489.83398438 C602.55720046 560.77093475 631.61329384 636.64138614 680 893 C680.06058594 893.77684143 680.12117188 894.55368286 680.18359375 895.35406494 C683.74148397 941.52633821 683.55228568 988.8356385 680 1035 C679.93683594 1035.83891785 679.87367187 1036.67783569 679.80859375 1037.54217529 C673.45719898 1121.48994541 657.03120657 1203.94951529 630.69018555 1283.90405273 C630.0374364 1285.88631358 629.38847328 1287.86977621 628.74023438 1289.85351562 C608.12254597 1352.58392928 580.21461865 1413.9522055 547 1471 C546.37480469 1472.07491699 545.74960938 1473.14983398 545.10546875 1474.25732422 C533.05090586 1494.9218646 520.43963858 1515.20639297 507 1535 C506.57686523 1535.62503418 506.15373047 1536.25006836 505.71777344 1536.89404297 C484.66367162 1567.94533673 461.77204477 1597.7375467 437.45019531 1626.29541016 C435.98196961 1628.02119329 434.51826467 1629.75074272 433.0546875 1631.48046875 C427.13200169 1638.4587691 421.06171931 1645.26650875 414.8203125 1651.9609375 C412.23804839 1654.73227587 409.70782308 1657.54711207 407.1875 1660.375 C404.15038348 1663.76781485 401.02019912 1667.01305491 397.76855469 1670.19897461 C396.07342897 1671.92522287 394.50705287 1673.70713403 392.94140625 1675.55078125 C388.38401453 1680.78913487 383.48068937 1685.66528372 378.5625 1690.5625 C377.65951172 1691.46935547 376.75652344 1692.37621094 375.82617188 1693.31054688 C371.25486415 1697.87523431 366.62492538 1702.28917693 361.72241211 1706.49584961 C359.36561818 1708.55399382 357.18210184 1710.75892244 355 1713 C351.4882345 1716.54918157 347.90991099 1719.91968457 344.1171875 1723.1640625 C341.59400545 1725.3520617 339.14445481 1727.61293113 336.6875 1729.875 C332.24749216 1733.92521292 327.68065719 1737.75534122 323.00390625 1741.52734375 C319.50332522 1744.40883633 316.09742675 1747.38744562 312.6875 1750.375 C306.25910123 1755.98515046 299.66119241 1761.31467734 292.90576172 1766.52392578 C290.84672715 1768.11871479 288.7997111 1769.72812291 286.75390625 1771.33984375 C277.07410891 1778.9492606 267.22460306 1786.26753527 257.20166016 1793.41748047 C255.08367427 1794.93985622 252.98279002 1796.48278952 250.88671875 1798.03515625 C222.96098983 1818.64223721 193.11582622 1836.80930298 163 1854 C161.93942383 1854.60650391 160.87884766 1855.21300781 159.78613281 1855.83789062 C87.78121312 1896.80583719 10.85882722 1927.53029693 -264.75 1982.6875 C-265.5918988 1982.74843842 -266.43379761 1982.80937683 -267.3012085 1982.87216187 C-291.00926805 1984.56301837 -314.67063772 1985.20757085 -338.4375 1985.1875 C-339.1001889 1985.18723312 -339.76287781 1985.18696625 -340.44564819 1985.18669128 C-424.13723589 1985.14458215 -507.28379315 1975.23555458 -789.16088867 1881.90686035 C-791.04113785 1880.97971505 -792.92356514 1880.05713239 -794.80664062 1879.13574219 C-810.45783327 1871.47347697 -825.88960556 1863.55068803 -840.95361328 1854.7734375 C-843.70724717 1853.17042447 -846.467234 1851.57887698 -849.22932434 1849.99049377 C-864.11699795 1841.42060924 -878.72020806 1832.53758132 -893.01025391 1822.99365234 C-895.68339164 1821.21112395 -898.36305737 1819.43888525 -901.04589844 1817.67100525 C-913.83596587 1809.24121854 -926.51485073 1800.69561155 -938.83886719 1791.59179688 C-941.13718669 1789.89895422 -943.44664195 1788.22212347 -945.7578125 1786.546875 C-954.79908802 1779.97164934 -963.60797271 1773.19212033 -972.234375 1766.08203125 C-975.79214502 1763.1528006 -979.41919365 1760.32153494 -983.0625 1757.5 C-988.74514112 1753.08133762 -994.19901746 1748.43467606 -999.61010742 1743.6887207 C-1003.13510743 1740.59993544 -1006.7038886 1737.60328439 -1010.375 1734.6875 C-1016.06589122 1730.08544895 -1021.3432938 1725.07026012 -1026.63623047 1720.0222168 C-1030.23694958 1716.5887442 -1033.87115699 1713.21261116 -1037.59472656 1709.91235352 C-1043.17448509 1704.89869824 -1048.49645895 1699.64924788 -1053.79296875 1694.33984375 C-1054.79309335 1693.34039547 -1055.79336611 1692.34109544 -1056.79377747 1691.3419342 C-1058.87187368 1689.2652982 -1060.94818692 1687.18690095 -1063.02319336 1685.10717773 C-1065.66209872 1682.46256112 -1068.30549066 1679.82248174 -1070.95023632 1677.18370724 C-1073.01029074 1675.12729135 -1075.06792689 1673.06846892 -1077.12487221 1671.00894356 C-1078.09801513 1670.03514123 -1079.07188001 1669.06205973 -1080.04652977 1668.08976555 C-1085.04935916 1663.09638674 -1089.94889502 1658.07143971 -1094.54197693 1652.69613647 C-1096.90310184 1649.94941033 -1099.39732818 1647.32865395 -1101.875 1644.6875 C-1106.40901694 1639.8189425 -1110.68492781 1634.80667836 -1114.8515625 1629.6171875 C-1117.01511772 1626.98158387 -1119.2638956 1624.45576625 -1121.5625 1621.9375 C-1125.11321008 1618.03233004 -1128.45393696 1614.02079434 -1131.71875 1609.875 C-1133.45115832 1607.69169089 -1135.19966932 1605.52827497 -1136.96875 1603.375 C-1144.02364752 1594.78341326 -1150.8369269 1586.05534101 -1157.43896484 1577.11132812 C-1159.05285038 1574.92851891 -1160.6762477 1572.75301848 -1162.30078125 1570.578125 C-1190.33792123 1532.93099703 -1215.55459202 1493.22367888 -1238 1452 C-1238.53238281 1451.02546875 -1239.06476563 1450.0509375 -1239.61328125 1449.046875 C-1283.52089815 1368.56609639 -1315.41230712 1282.65901832 -1359 1037 C-1359.05113953 1036.27981689 -1359.10227905 1035.55963379 -1359.15496826 1034.81762695 C-1362.49393414 987.4933333 -1362.50502722 939.31437179 -1359 892 C-1358.93683594 891.14347839 -1358.87367187 890.28695679 -1358.80859375 889.40447998 C-1352.56988502 806.01718041 -1336.85484609 723.58457012 -1310.69995117 644.128479 C-1309.99913356 641.99736524 -1309.30302246 639.86475519 -1308.60742188 637.73193359 C-1297.70531854 604.40675598 -1284.71164951 571.82574375 -1270 540 C-1269.38032974 538.65431592 -1268.7607028 537.30861189 -1268.14111328 535.96289062 C-1235.82389 465.88561218 -1195.46505068 399.86244402 -1148 339 C-1147.10934315 337.85028509 -1146.21871916 336.70054472 -1145.328125 335.55078125 C-1139.91792439 328.59110839 -1134.35099374 321.79542766 -1128.625 315.09375 C-1126.16084036 312.2044868 -1123.76339 309.26481542 -1121.375 306.3125 C-1117.75165505 301.86096192 -1113.98036128 297.57617545 -1110.1171875 293.33203125 C-1108.21948831 291.24176111 -1106.35266585 289.13013885 -1104.5 287 C-1100.38683877 282.2844536 -1096.20162457 277.63674169 -1092 273 C-1091.23099365 272.14414307 -1090.4619873 271.28828613 -1089.66967773 270.40649414 C-1080.48338382 260.3045771 -1070.82709794 250.67373609 -1061.16259766 241.03222656 C-1058.72319743 238.59856297 -1056.28837231 236.16037891 -1053.85481644 233.72087288 C-1051.4941942 231.35574028 -1049.12973962 228.99445425 -1046.765625 226.6328125 C-1045.90398743 225.7691507 -1045.04234985 224.90548889 -1044.15460205 224.01565552 C-1039.80210238 219.6798556 -1035.3905534 215.48076809 -1030.72291565 211.48480225 C-1027.9695919 209.11199817 -1025.33786701 206.61134051 -1022.6875 204.125 C-1017.84130801 199.61137599 -1012.85012954 195.36156986 -1007.68359375 191.21484375 C-1004.84761459 188.87423213 -1002.14147155 186.4290979 -999.4375 183.9375 C-995.36038747 180.19344737 -991.19249531 176.66357847 -986.83984375 173.24609375 C-984.66791008 171.52826451 -982.51821453 169.79286119 -980.37890625 168.03515625 C-971.79069593 160.98169685 -963.06547366 154.1700648 -954.12451172 147.56982422 C-951.9030736 145.92838006 -949.68768036 144.27899329 -947.47265625 142.62890625 C-931.3116776 130.61971146 -914.87537087 118.98630102 -898 108 C-897.1018457 107.41492676 -896.20369141 106.82985352 -895.27832031 106.22705078 C-881.57689636 97.32627276 -867.75084087 88.6980465 -853.61035156 80.51171875 C-851.09792046 79.05670814 -848.59176874 77.59133812 -846.0859375 76.125 C-773.71661661 34.03329865 -695.84958073 1.06871115 0 0 Z M-967 372 C-966.05693497 373.66328339 -966.05693497 373.66328339 -965.09481812 375.36016846 C-964.56434403 376.29576536 -964.56434403 376.29576536 -964.02315331 377.25026321 C-962.8116518 379.32210205 -961.47429797 381.24884391 -960.0390625 383.171875 C-959.49258057 383.90849365 -958.94609863 384.6451123 -958.38305664 385.40405273 C-957.80289795 386.17821533 -957.22273926 386.95237793 -956.625 387.75 C-955.3657541 389.44391281 -954.10664325 391.13792601 -952.84765625 392.83203125 C-952.20715332 393.69135254 -951.56665039 394.55067383 -950.90673828 395.43603516 C-948.51795186 398.64820353 -946.14795094 401.8739178 -943.77880859 405.10058594 C-938.39431926 412.43206985 -932.96568941 419.72886996 -927.5 427 C-919.10799545 438.16407315 -910.82811346 449.40934441 -902.57421875 460.67578125 C-896.46001429 469.01112427 -890.2808727 477.28933444 -884 485.5 C-875.95897686 496.01162075 -868.10940059 506.65630433 -860.29101562 517.33398438 C-852.94811189 527.35616884 -845.51264001 537.29725718 -837.96142578 547.16357422 C-832.99335512 553.66581386 -828.12420401 560.23453424 -823.2890625 566.8359375 C-818.92722837 572.77671612 -814.47937591 578.64747089 -810 584.5 C-804.32769077 591.91282362 -798.73852758 599.37928057 -793.21875 606.90625 C-789.01673906 612.63280006 -784.76959632 618.32368983 -780.5 624 C-775.64790452 630.45072667 -770.83588485 636.92833884 -766.0625 643.4375 C-760.4523016 651.08314453 -754.7247857 658.63338082 -748.96118164 666.16381836 C-743.99326998 672.66603498 -739.12413668 679.23462618 -734.2890625 685.8359375 C-729.92722706 691.7767179 -725.47929729 697.64740917 -721 703.5 C-712.9586937 714.01139798 -705.10939526 724.65631162 -697.29101562 735.33398438 C-689.8592088 745.47751091 -682.32596657 755.53177932 -674.68017578 765.51513672 C-670.63485215 770.81153053 -666.69593368 776.16102294 -662.86621094 781.61450195 C-659.04764718 787.01411562 -655.02317484 792.25191667 -651 797.5 C-646.15183136 803.82562047 -641.37694244 810.17875473 -636.78808594 816.69458008 C-633.20367755 821.76410564 -629.48414155 826.72756122 -625.75 831.6875 C-619.01848501 840.62895848 -612.36054298 849.62175744 -605.73388672 858.64111328 C-602.82628372 862.59679621 -599.91283606 866.54816989 -597 870.5 C-595.83330558 872.08331288 -594.6666389 873.66664621 -593.5 875.25 C-592.63375 876.425625 -592.63375 876.425625 -591.75 877.625 C-590 880 -588.25 882.375 -586.5 884.75 C-585.92241943 885.53383057 -585.34483887 886.31766113 -584.74975586 887.12524414 C-583.58379194 888.70768185 -582.41793896 890.29020131 -581.25219727 891.87280273 C-578.32568557 895.84551887 -575.39722466 899.81676994 -572.46484375 903.78515625 C-566.2259032 912.23257133 -560.02941003 920.70758409 -553.89428711 929.23071289 C-549.9660103 934.68107061 -545.99278712 940.09676235 -542 945.5 C-535.81094635 953.87775061 -529.69812481 962.30807964 -523.61328125 970.76171875 C-521.98510744 973.02066207 -520.35262375 975.27642661 -518.71875 977.53125 C-511.90707808 986.93437386 -505.14390994 996.36938057 -498.48486328 1005.88134766 C-497.46734119 1007.33318204 -496.44735861 1008.7832942 -495.42529297 1010.23193359 C-493.88159777 1012.42125186 -492.34610023 1014.61610243 -490.8125 1016.8125 C-490.34247559 1017.47652832 -489.87245117 1018.14055664 -489.38818359 1018.82470703 C-485.53459131 1024.3782017 -485.53459131 1024.3782017 -485 1028 C-486.40625 1029.859375 -486.40625 1029.859375 -488.5 1031.75 C-491.22293648 1034.30862135 -493.82292363 1036.84589821 -496.25 1039.6875 C-499.38034266 1043.32527264 -502.61235837 1046.85641502 -505.875 1050.375 C-509.44434143 1054.2259865 -512.99646017 1058.08877553 -516.5 1062 C-520.47530054 1066.43620495 -524.51207668 1070.81254398 -528.55859375 1075.18359375 C-531.56410722 1078.43383097 -534.54559609 1081.7030565 -537.5 1085 C-541.47667948 1089.43774377 -545.51461009 1093.81584102 -549.56298828 1098.18798828 C-552.52753363 1101.3933853 -555.4654824 1104.61936878 -558.375 1107.875 C-562.79277114 1112.80683905 -567.31719785 1117.63521657 -571.84277344 1122.46777344 C-575.85979507 1126.76287985 -579.81814651 1131.10439674 -583.73828125 1135.48828125 C-587.92859272 1140.1417705 -592.19346168 1144.72687642 -596.44726562 1149.32226562 C-598.98766478 1152.0671749 -601.52534042 1154.81459647 -604.0625 1157.5625 C-604.55911133 1158.10036133 -605.05572266 1158.63822266 -605.56738281 1159.19238281 C-610.27086098 1164.28909756 -614.95770456 1169.40096073 -619.64111328 1174.51611328 C-622.38528868 1177.51271731 -625.1315719 1180.50738983 -627.87744141 1183.50244141 C-630.15725366 1185.98928875 -632.43659058 1188.47656796 -634.71484375 1190.96484375 C-640.95448377 1197.77834684 -647.21407649 1204.57314225 -653.48388672 1211.35888672 C-655.99014104 1214.07177585 -658.49502145 1216.78593292 -661 1219.5 C-664.01102872 1222.76235685 -667.02235526 1226.02443592 -670.03515625 1229.28515625 C-674.86630592 1234.51475125 -679.6918495 1239.74924378 -684.5 1245 C-689.81204208 1250.80103264 -695.14594334 1256.58169117 -700.48388672 1262.35888672 C-702.99014104 1265.07177586 -705.49500446 1267.78594859 -708 1270.5 C-708.99999324 1271.58333957 -709.99999324 1272.66667291 -711 1273.75 C-711.7425 1274.554375 -711.7425 1274.554375 -712.5 1275.375 C-722 1285.66666667 -731.5 1295.95833333 -741 1306.25 C-741.49483887 1306.78608887 -741.98967773 1307.32217773 -742.49951172 1307.87451172 C-743.50108526 1308.95952256 -744.502713 1310.04448338 -745.50439453 1311.12939453 C-747.98076272 1313.81165757 -750.45623064 1316.49473934 -752.9296875 1319.1796875 C-758.88134217 1325.63778179 -764.86103282 1332.0686774 -770.85888672 1338.48388672 C-775.32284221 1343.26308982 -779.7442573 1348.07901093 -784.15625 1352.90625 C-787.41364794 1356.45977503 -790.70707554 1359.97942534 -794 1363.5 C-799.12996344 1368.98538174 -804.2251005 1374.50021973 -809.29296875 1380.04296875 C-812.16490669 1383.1833317 -815.05008448 1386.31137033 -817.9375 1389.4375 C-818.43580322 1389.97705322 -818.93410645 1390.51660645 -819.44750977 1391.07250977 C-821.47157784 1393.26375365 -823.49605171 1395.45462243 -825.52050781 1397.64550781 C-831.31113258 1403.91278851 -837.09354178 1410.1872557 -842.85571289 1416.48071289 C-846.2280119 1420.16227522 -849.61181813 1423.83305401 -853 1427.5 C-858.22815526 1433.15885767 -863.43844106 1438.83382849 -868.64111328 1444.51611328 C-871.38528868 1447.51271731 -874.1315719 1450.50738983 -876.87744141 1453.50244141 C-879.15725366 1455.98928875 -881.43659058 1458.47656796 -883.71484375 1460.96484375 C-887.99517216 1465.63862425 -892.28097381 1470.30700463 -896.58447266 1474.95947266 C-901.33855597 1480.09930727 -906.0564556 1485.2674703 -910.73046875 1490.48046875 C-913.263549 1493.29258021 -915.816162 1496.08635581 -918.375 1498.875 C-918.83366455 1499.37491455 -919.2923291 1499.8748291 -919.76489258 1500.38989258 C-922.14070238 1502.97795411 -924.51890411 1505.56379955 -926.8984375 1508.1484375 C-931.3673119 1513.00683585 -935.80137075 1517.88619701 -940.125 1522.875 C-942.54550208 1525.61823569 -945.02207715 1528.30877915 -947.5 1531 C-951.17517987 1534.99324818 -954.81496769 1539.01042265 -958.36328125 1543.1171875 C-959.55538171 1544.4885298 -960.76333333 1545.84614069 -961.98046875 1547.1953125 C-962.62628906 1547.91460938 -963.27210938 1548.63390625 -963.9375 1549.375 C-964.52402344 1550.02210937 -965.11054687 1550.66921875 -965.71484375 1551.3359375 C-967.20374533 1552.91339058 -967.20374533 1552.91339058 -967 1555 C-955.02136676 1556.97839412 -943.25104676 1557.38939464 -931.12890625 1557.4765625 C-930.15971693 1557.48471355 -929.19052761 1557.49286461 -928.19196892 1557.50126266 C-923.07989284 1557.54260611 -917.96791868 1557.57139052 -912.85571289 1557.59033203 C-907.59755838 1557.61261365 -902.34106108 1557.68168899 -897.08349705 1557.76067543 C-893.01274019 1557.81299252 -888.94238418 1557.829712 -884.87132072 1557.83689499 C-882.93242893 1557.84660132 -880.99355353 1557.86975778 -879.05499458 1557.90697098 C-868.69663103 1558.42766871 -868.69663103 1558.42766871 -859.1151123 1555.30221558 C-857.08344444 1553.30406507 -855.56601037 1551.37105961 -854 1549 C-852.83561861 1547.65070108 -851.65762779 1546.31291607 -850.4609375 1544.9921875 C-849.89213867 1544.33186523 -849.32333984 1543.67154297 -848.73730469 1542.99121094 C-845.79250766 1539.61603323 -842.70292458 1536.37837306 -839.625 1533.125 C-834.80607718 1528.00956429 -830.04287635 1522.85689534 -825.36328125 1517.61328125 C-821.72288438 1513.58778454 -818.00590069 1509.63452646 -814.29711914 1505.67211914 C-809.73648813 1500.79700421 -805.2153101 1495.88800782 -800.7109375 1490.9609375 C-797.81793526 1487.79744272 -794.90958228 1484.64824074 -792 1481.5 C-788.15758215 1477.3415979 -784.32338403 1473.17590926 -780.5 1469 C-775.18800184 1463.19892738 -769.85405644 1457.41830859 -764.51611328 1451.64111328 C-762.00985896 1448.92822415 -759.50497855 1446.21406708 -757 1443.5 C-753.98897128 1440.23764315 -750.97764474 1436.97556408 -747.96484375 1433.71484375 C-743.13369408 1428.48524875 -738.3081505 1423.25075622 -733.5 1418 C-728.18795792 1412.19896736 -722.85405666 1406.41830883 -717.51611328 1400.64111328 C-715.00985896 1397.92822415 -712.50497855 1395.21406708 -710 1392.5 C-706.98897128 1389.23764315 -703.97764474 1385.97556408 -700.96484375 1382.71484375 C-696.13369408 1377.48524875 -691.3081505 1372.25075622 -686.5 1367 C-680.18064701 1360.09893023 -673.8299052 1353.2269687 -667.47949219 1346.35449219 C-665.96530773 1344.71566746 -664.45133295 1343.07664943 -662.9375 1341.4375 C-662.18907837 1340.62720337 -662.18907837 1340.62720337 -661.42553711 1339.80053711 C-658.14894617 1336.25085248 -654.88472657 1332.69017679 -651.625 1329.125 C-646.85164712 1323.90640087 -642.02699475 1318.73677024 -637.19628906 1313.57128906 C-632.66959929 1308.72711091 -628.18082588 1303.85003943 -623.70703125 1298.95703125 C-619.32791788 1294.16862506 -614.91966677 1289.40702925 -610.51611328 1284.64111328 C-608.00985896 1281.92822414 -605.50499554 1279.21405141 -603 1276.5 C-602.00000676 1275.41666043 -601.00000676 1274.33332709 -600 1273.25 C-599.2575 1272.445625 -599.2575 1272.445625 -598.5 1271.625 C-596.25 1269.1875 -596.25 1269.1875 -594 1266.75 C-593.50516113 1266.21391113 -593.01032227 1265.67782227 -592.50048828 1265.12548828 C-591.49891474 1264.04047744 -590.497287 1262.95551662 -589.49560547 1261.87060547 C-587.01923728 1259.18834243 -584.54376936 1256.50526066 -582.0703125 1253.8203125 C-576.11865783 1247.36221821 -570.13896718 1240.9313226 -564.14111328 1234.51611328 C-560.57310964 1230.69613477 -557.02670472 1226.85814246 -553.5 1223 C-548.78872712 1217.84596432 -544.03100608 1212.7370629 -539.26171875 1207.63671875 C-535.492981 1203.60466307 -531.739094 1199.559552 -528 1195.5 C-523.66547385 1190.7939845 -519.30739401 1186.1106861 -514.9375 1181.4375 C-510.78866905 1177.00040722 -506.65899067 1172.54797495 -502.5625 1168.0625 C-496.40502706 1161.32719969 -490.15262258 1154.68210447 -483.90527344 1148.03027344 C-480.86960533 1144.7954431 -477.84002306 1141.5549528 -474.8125 1138.3125 C-474.23902832 1137.69850342 -473.66555664 1137.08450684 -473.07470703 1136.4519043 C-469.73880636 1132.87623279 -466.41950482 1129.28593317 -463.11083984 1125.68505859 C-459.02379007 1121.23712142 -454.90406302 1116.85092731 -450.58984375 1112.62109375 C-448.13351201 1110.11648031 -445.85870728 1107.46110664 -443.578125 1104.796875 C-443.05734375 1104.20390625 -442.5365625 1103.6109375 -442 1103 C-441.54109375 1102.40703125 -441.0821875 1101.8140625 -440.609375 1101.203125 C-439 1100 -439 1100 -436.765625 1099.8828125 C-432.53199086 1101.59300934 -429.87982652 1104.61802181 -426.75 1107.875 C-426.08178223 1108.55755859 -425.41356445 1109.24011719 -424.72509766 1109.94335938 C-420.32854072 1114.48380363 -416.21045733 1119.17117726 -412.296875 1124.13671875 C-409.50402098 1127.61828677 -406.5691671 1130.95895835 -403.625 1134.3125 C-397.97457913 1140.78041116 -392.63989568 1147.44445185 -387.38134766 1154.23193359 C-384.99575903 1157.28538585 -382.55617429 1160.29532396 -380.125 1163.3125 C-375.25068983 1169.37765675 -370.50368553 1175.53264316 -365.79223633 1181.72485352 C-362.33651678 1186.2635621 -358.84591502 1190.77153617 -355.3125 1195.25 C-350.1534215 1201.79141975 -345.0637131 1208.38456296 -340 1215 C-339.52369141 1215.62181152 -339.04738281 1216.24362305 -338.55664062 1216.88427734 C-334.70006781 1221.91952458 -330.84881019 1226.95881734 -327 1232 C-326.0114502 1233.29478271 -326.0114502 1233.29478271 -325.00292969 1234.61572266 C-318.12402276 1243.62828959 -311.24671885 1252.64067225 -304.46484375 1261.7265625 C-302.41214551 1264.46408718 -300.33418352 1267.18182203 -298.25390625 1269.8984375 C-285.83447735 1286.12116977 -285.83447735 1286.12116977 -281 1293 C-276.2368475 1299.77641225 -271.20093839 1306.33580701 -266.1640625 1312.91015625 C-261.71275775 1318.72852838 -257.3275176 1324.58907773 -253 1330.5 C-248.07450729 1337.22508377 -243.0664474 1343.88048134 -238 1350.5 C-232.25628366 1358.0056476 -226.59794097 1365.56687643 -221.0078125 1373.1875 C-217.36846391 1378.14798198 -213.70023321 1383.08478317 -210 1388 C-205.70917798 1393.69972739 -201.46976112 1399.43500053 -197.25 1405.1875 C-191.57681778 1412.91563489 -185.78860854 1420.55002954 -179.96191406 1428.1628418 C-174.99662886 1434.6616648 -170.12902721 1441.22608633 -165.29785156 1447.82495117 C-160.85518898 1453.87779513 -156.31621363 1459.85247959 -151.75 1465.8125 C-147.00430122 1472.00877085 -142.34541901 1478.24064107 -137.85742188 1484.62548828 C-133.45680048 1490.84399405 -128.79652275 1496.86366787 -124.1640625 1502.91015625 C-119.13365146 1509.48548753 -114.20169422 1516.1258022 -109.31201172 1522.80615234 C-104.07990153 1529.93514518 -98.72065642 1536.96442362 -93.328125 1543.97265625 C-92.69132812 1544.8028125 -92.05453125 1545.63296875 -91.3984375 1546.48828125 C-90.83817871 1547.21571533 -90.27791992 1547.94314941 -89.70068359 1548.69262695 C-88 1551 -88 1551 -86.6081686 1554.0986948 C-83.65786281 1557.38059058 -83.18271703 1557.45345159 -79.0040369 1557.74108028 C-76.8590583 1557.76768843 -74.71351732 1557.7606823 -72.56861877 1557.72825623 C-71.38665906 1557.73408834 -70.20469935 1557.73992046 -68.98692268 1557.7459293 C-65.70341323 1557.75605332 -62.42130462 1557.7392008 -59.13794029 1557.71105278 C-55.59601731 1557.68721649 -52.05418052 1557.69799588 -48.51220703 1557.70454407 C-41.56319284 1557.71196782 -34.61463183 1557.68755811 -27.66571421 1557.65294313 C-19.5429717 1557.61387752 -11.42030647 1557.60804142 -3.29748344 1557.60396302 C11.23740508 1557.59569827 25.77209338 1557.55990436 40.30688477 1557.50756836 C54.33488063 1557.45710386 68.36279076 1557.42147246 82.39086914 1557.4050293 C83.25006202 1557.40401836 84.10925491 1557.40300742 84.99448394 1557.40196585 C88.45063836 1557.39794358 91.90679284 1557.3939812 95.36294743 1557.39010939 C110.43368005 1557.37291641 125.50439614 1557.34466662 140.57510582 1557.31357017 C142.18637493 1557.31025815 143.79764415 1557.30699473 145.40891346 1557.30378041 C189.00801426 1557.29721228 189.00801426 1557.29721228 232.59790039 1556.54321289 C233.2910015 1556.52410004 233.98410261 1556.5049872 234.69820678 1556.48529518 C260.97067013 1556.0272567 260.97067013 1556.0272567 287 1553 C285.37297221 1547.9192813 282.32262884 1544.04732153 279.1875 1539.8125 C278.00243142 1538.19283472 276.81754044 1536.57303947 275.6328125 1534.953125 C275.02727539 1534.12876953 274.42173828 1533.30441406 273.79785156 1532.45507812 C271.56534048 1529.40644539 269.35767769 1526.34042982 267.15185547 1523.27246094 C260.42929307 1513.92489799 253.60862031 1504.6510669 246.76611328 1495.39111328 C243.84043897 1491.43008838 240.92049694 1487.46484283 238 1483.5 C236.8333611 1481.91664621 235.66669442 1480.33331288 234.5 1478.75 C227.5 1469.24999999 227.5 1469.24999999 225.75024414 1466.87524414 C224.58287469 1465.29101519 223.41539412 1463.70686812 222.24780273 1462.12280273 C219.34097443 1458.1788343 216.4360552 1454.23348838 213.53515625 1450.28515625 C206.94016041 1441.31358533 200.29747365 1432.38034935 193.60571289 1423.48071289 C188.78623289 1417.06492434 184.0203642 1410.61124067 179.26953125 1404.14453125 C174.42658483 1397.56030072 169.52425443 1391.02191033 164.61206055 1384.48925781 C159.72017855 1377.9769042 154.88174387 1371.42663253 150.05859375 1364.86328125 C145.91669778 1359.23142723 141.73400223 1353.6318698 137.52954102 1348.04663086 C133.73259829 1342.99550287 129.98756647 1337.90765788 126.25 1332.8125 C120.57681778 1325.08436511 114.78860854 1317.44997046 108.96191406 1309.8371582 C103.99377647 1303.33460185 99.12437737 1296.76570244 94.2890625 1290.1640625 C89.92722706 1284.2232821 85.47929729 1278.35259083 81 1272.5 C72.9586937 1261.98860202 65.10939526 1251.34368838 57.29101562 1240.66601562 C49.94811189 1230.64383116 42.51264001 1220.70274282 34.96142578 1210.83642578 C29.99335512 1204.33418614 25.12420401 1197.76546576 20.2890625 1191.1640625 C15.26691059 1184.32393705 10.12388338 1177.58009006 4.96533203 1170.8425293 C0.53576655 1165.04619071 -3.81815557 1159.20046074 -8.125 1153.3125 C-12.6511537 1147.12743929 -17.27050653 1141.03095953 -22 1135 C-27.3344624 1128.19759567 -32.50593814 1121.29340214 -37.609375 1114.31640625 C-42.00231167 1108.32248822 -46.48240806 1102.40040656 -51 1096.5 C-56.65365962 1089.11367991 -62.21470389 1081.66805268 -67.7109375 1074.1640625 C-72.07277032 1068.22328567 -76.52054548 1062.3524674 -81 1056.5 C-86.65353395 1049.11358208 -92.21470194 1041.66805534 -97.7109375 1034.1640625 C-102.73248575 1027.32475923 -107.87536687 1020.58210329 -113.0324707 1013.84472656 C-117.47961181 1008.02422737 -121.85770771 1002.1582237 -126.1875 996.25 C-132.10653724 988.17677229 -138.15254341 980.20976743 -144.25341797 972.2734375 C-153.18283095 960.65047221 -162.04942515 948.98896803 -170.71069336 937.16455078 C-175.07244521 931.22349078 -179.5204369 925.35260927 -184 919.5 C-189.64499738 912.12473522 -195.20713468 904.69695753 -200.68237305 897.19482422 C-203.86016848 892.85488701 -207.09339162 888.56740111 -210.39453125 884.3203125 C-211.12994141 883.37091797 -211.86535156 882.42152344 -212.62304688 881.44335938 C-214.05291559 879.60277012 -215.49011764 877.76784797 -216.93554688 875.93945312 C-217.90524414 874.68938477 -217.90524414 874.68938477 -218.89453125 873.4140625 C-219.75848511 872.31505615 -219.75848511 872.31505615 -220.63989258 871.19384766 C-222.17376038 868.71972522 -222.7849441 866.90073332 -223 864 C-220.9375 861.38671875 -220.9375 861.38671875 -218 858.6875 C-216.96943088 857.71688179 -215.94078456 856.74421799 -214.9140625 855.76953125 C-214.41036133 855.29725098 -213.90666016 854.8249707 -213.38769531 854.33837891 C-211.59789282 852.61218305 -209.98007053 850.77293885 -208.375 848.875 C-205.8727091 845.94169249 -203.24500542 843.20803565 -200.5 840.5 C-197.81673907 837.85269566 -195.24743099 835.18903057 -192.8125 832.3125 C-188.8390784 827.66908693 -184.4660265 823.44033204 -180.12548828 819.14501953 C-176.4631914 815.50624289 -172.97356748 811.79748903 -169.63671875 807.85546875 C-166.97069681 804.83312884 -164.06329552 802.05565761 -161.1953125 799.2265625 C-158.55993257 796.55366826 -156.12233511 793.74631697 -153.6796875 790.8984375 C-151.47834607 788.41040974 -149.11911485 786.10805923 -146.75 783.78125 C-144.91757513 781.91610326 -143.20646865 779.98072254 -141.5 778 C-138.74641194 774.80387101 -135.85289662 771.82738155 -132.84301758 768.87426758 C-131.06882371 767.06999067 -129.41067338 765.21170309 -127.76171875 763.29296875 C-124.05283906 759.02751213 -120.2026573 754.9123179 -116.3125 750.8125 C-109.97029889 744.10119158 -103.67616366 737.3494323 -97.42675781 730.55175781 C-94.99527914 727.90725432 -92.56065266 725.2656591 -90.125 722.625 C-89.39083862 721.82896362 -89.39083862 721.82896362 -88.6418457 721.0168457 C-84.75640181 716.80871774 -80.84907469 712.6213322 -76.9375 708.4375 C-71.82889126 702.97254144 -66.75499275 697.47800817 -61.70703125 691.95703125 C-57.32791788 687.16862506 -52.91966677 682.40702925 -48.51611328 677.64111328 C-46.00985896 674.92822414 -43.50499554 672.21405141 -41 669.5 C-40.00000676 668.41666043 -39.00000676 667.33332709 -38 666.25 C-37.2575 665.445625 -37.2575 665.445625 -36.5 664.625 C-20.00000001 646.75000001 -20.00000001 646.75000001 -18.49975586 645.12475586 C-17.50054262 644.04226129 -16.50135638 642.95974179 -15.50219727 641.87719727 C-12.99038165 639.15582492 -10.47808667 636.43489805 -7.96484375 633.71484375 C-3.13369408 628.48524875 1.6918495 623.25075622 6.5 618 C11.81204208 612.19896736 17.14594334 606.41830883 22.48388672 600.64111328 C24.99014104 597.92822415 27.49502145 595.21406708 30 592.5 C33.01102872 589.23764315 36.02235526 585.97556408 39.03515625 582.71484375 C43.86630592 577.48524875 48.6918495 572.25075622 53.5 567 C58.81204208 561.19896736 64.14594334 555.41830883 69.48388672 549.64111328 C71.99014104 546.92822415 74.49502145 544.21406708 77 541.5 C80.01102872 538.23764315 83.02235526 534.97556408 86.03515625 531.71484375 C90.86630592 526.48524875 95.6918495 521.25075622 100.5 516 C106.81935299 509.09893023 113.1700948 502.2269687 119.52050781 495.35449219 C124.85697495 489.57875316 130.18935718 483.79950458 135.5 478 C140.81484062 472.1959112 146.15177993 466.41243284 151.49267578 460.63232422 C152.97410134 459.02804639 154.45408992 457.42245634 155.93359375 455.81640625 C161.8837087 449.35939298 167.86228888 442.92997914 173.85888672 436.51611328 C177.42689036 432.69613477 180.97329528 428.85814246 184.5 425 C190.35679953 418.59439348 196.28152622 412.25335881 202.21044922 405.91455078 C203.95570615 404.04738778 205.69895935 402.17837905 207.44140625 400.30859375 C208.00802979 399.70072021 208.57465332 399.09284668 209.15844727 398.46655273 C210.298424 397.24356248 211.4382365 396.02041912 212.57788086 394.79711914 C215.85038394 391.28879317 219.13729148 387.79478899 222.4375 384.3125 C223.17629395 383.53181152 223.91508789 382.75112305 224.67626953 381.94677734 C226.12303679 380.41904509 227.57187621 378.89327206 229.02294922 377.36962891 C229.67279785 376.68304199 230.32264648 375.99645508 230.9921875 375.2890625 C231.86399658 374.37181396 231.86399658 374.37181396 232.75341797 373.43603516 C234.10925607 372.1910763 234.10925607 372.1910763 234 371 C219.77893866 370.8128834 205.55806895 370.67246368 191.3360281 370.58550262 C184.73196639 370.54376371 178.12873202 370.48715566 171.52514648 370.39648438 C165.1514022 370.30951731 158.77845329 370.26171612 152.40416145 370.24098206 C149.97320089 370.22620779 147.54228356 370.19735611 145.11166191 370.15415955 C141.70426505 370.09601601 138.30014765 370.08808983 134.89233398 370.09179688 C133.88891968 370.06303467 132.88550537 370.03427246 131.85168457 370.00463867 C127.81728257 370.05208152 125.09949048 370.10732823 121.89676094 372.70761108 C120.11833147 374.72945207 118.56425824 376.81056537 117 379 C115.83737727 380.29151298 114.6584541 381.56871864 113.45703125 382.82421875 C112.86446533 383.45352295 112.27189941 384.08282715 111.66137695 384.73120117 C111.05124756 385.37677979 110.44111816 386.0223584 109.8125 386.6875 C108.48919194 388.0933817 107.16628028 389.49963661 105.84375 390.90625 C104.86921875 391.94265625 104.86921875 391.94265625 103.875 393 C101.17280759 395.88233857 98.48973952 398.78199294 95.8125 401.6875 C95.0858313 402.4760437 95.0858313 402.4760437 94.34448242 403.28051758 C92.89591095 404.85330084 91.44793276 406.42662873 90 408 C83.07453123 415.52060808 76.12328109 423.01587086 69.14111328 430.48388672 C64.67715779 435.26308982 60.2557427 440.07901093 55.84375 444.90625 C51.99002945 449.11030878 48.08718356 453.26856185 44.19140625 457.43359375 C40.60612869 461.2699192 37.04247746 465.1241129 33.5 469 C28.76668149 474.17880731 23.98405276 479.30970601 19.19140625 484.43359375 C15.60612869 488.2699192 12.04247746 492.1241129 8.5 496 C3.76668149 501.17880731 -1.01594724 506.30970601 -5.80859375 511.43359375 C-9.39387131 515.2699192 -12.95752254 519.1241129 -16.5 523 C-20.63791184 527.52736236 -24.81024595 532.02059512 -29 536.5 C-34.13247534 541.98806767 -39.22974271 547.50595224 -44.30078125 553.05078125 C-52.10293432 561.575565 -59.966465 570.04222008 -67.85864258 578.48364258 C-71.42674217 582.30368907 -74.97321763 586.14177259 -78.5 590 C-83.20987715 595.15250878 -87.96641765 600.25967748 -92.73388672 605.35888672 C-96.54395391 609.43566904 -100.341986 613.52310171 -104.125 617.625 C-104.61436035 618.15561035 -105.1037207 618.6862207 -105.60791016 619.23291016 C-107.55376468 621.34376593 -109.49879654 623.45537586 -111.44287109 625.56787109 C-118.65511809 633.40451283 -125.91752959 641.19220804 -133.20703125 648.95703125 C-136.83228805 652.81922084 -140.44909742 656.68922074 -144.0625 660.5625 C-144.63669678 661.17794678 -145.21089355 661.79339355 -145.80249023 662.42749023 C-147.53513962 664.28485725 -149.26760526 666.14239547 -151 668 C-159.99508194 677.64520644 -168.99954975 687.28144974 -178.02636719 696.89697266 C-179.38689419 698.34669799 -180.74688846 699.79692341 -182.10644531 701.24755859 C-184.23651967 703.52025027 -186.36811671 705.79150524 -188.5 708.0625 C-189.14630371 708.75263184 -189.79260742 709.44276367 -190.45849609 710.15380859 C-194.0450355 713.97071883 -197.68420913 717.71760133 -201.42114258 721.38769531 C-203.09107963 723.0930091 -204.6433002 724.86808881 -206.1875 726.6875 C-209.7417606 730.81942824 -213.57318745 734.63431015 -217.47338867 738.4362793 C-220.21601639 741.13134435 -222.80573818 743.89564581 -225.3125 746.8125 C-230.02614198 752.26167733 -235.19379415 757.24087814 -240.328125 762.2890625 C-244.49992679 766.41829489 -248.48404956 770.62171281 -252.31152344 775.07128906 C-255.12993811 778.29070432 -258.11355536 781.33708112 -261.125 784.375 C-262.01638672 785.29732422 -262.01638672 785.29732422 -262.92578125 786.23828125 C-266.07287602 789.41316494 -268.58116333 791.74938585 -273 793 C-280.08797569 784.74668982 -286.94885677 776.35548364 -293.625 767.76611328 C-295.90628891 764.83592082 -298.20397797 761.91865134 -300.5 759 C-301.41542207 757.83468057 -302.33078662 756.66931596 -303.24609375 755.50390625 C-305.09063996 753.15612327 -306.93718056 750.80992813 -308.78515625 748.46484375 C-314.49430053 741.21642518 -320.15304334 733.93192798 -325.76611328 726.60888672 C-327.8409259 723.90350184 -329.9207484 721.20197368 -332 718.5 C-332.83725535 717.41147046 -333.67449496 716.32292881 -334.51171875 715.234375 C-336.13866417 713.11928247 -337.7663998 711.00480548 -339.39453125 708.890625 C-345.72762673 700.6647627 -352.0363952 692.42047125 -358.33984375 684.171875 C-359.94465094 682.0724096 -361.55027916 679.97357536 -363.15625 677.875 C-386.70751383 647.0982786 -386.70751383 647.0982786 -396.42651367 634.09082031 C-400.53901202 628.59461967 -404.70570565 623.1406833 -408.875 617.6875 C-414.02824097 610.94549588 -419.11428479 604.16104315 -424.125 597.3125 C-428.65124134 591.12749044 -433.27067746 585.03110377 -438 579 C-445.20132284 569.81203608 -452.11209503 560.42402926 -459 551 C-466.90719117 540.19560319 -474.9011218 529.46871391 -483.03857422 518.83642578 C-488.00664488 512.33418614 -492.87579599 505.76546576 -497.7109375 499.1640625 C-502.07277032 493.22328567 -506.52054548 487.3524674 -511 481.5 C-516.65353395 474.11358208 -522.21470194 466.66805534 -527.7109375 459.1640625 C-532.07277032 453.22328567 -536.52054548 447.3524674 -541 441.5 C-546.65067561 434.11731654 -552.21023936 426.67640427 -557.70214844 419.17504883 C-562.80831559 412.21822228 -568.04736544 405.36685976 -573.29614258 398.51733398 C-577.96472971 392.40696887 -582.48711868 386.21651017 -586.88671875 379.91015625 C-587.93279297 378.46962891 -587.93279297 378.46962891 -589 377 C-589.58532564 375.96499831 -590.17065128 374.92999662 -590.77371407 373.86363125 C-592.7025181 371.60057792 -593.77574 371.04524189 -596.72788024 370.4496814 C-600.40369637 370.23649689 -604.05474547 370.22392353 -607.7338562 370.27174377 C-609.16546791 370.26841092 -610.59707551 370.26244438 -612.02866662 370.2540707 C-615.96387121 370.23870132 -619.89811523 370.2607934 -623.83321643 370.28894722 C-628.07765345 370.31278515 -632.32201862 370.30200462 -636.5664978 370.29545593 C-644.88694351 370.28803663 -653.20701047 370.31241946 -661.52737544 370.34705687 C-671.23161061 370.38606985 -680.9357807 370.39195458 -690.64008309 370.39603698 C-707.97677272 370.40429715 -725.31329418 370.440088 -742.64990234 370.49243164 C-759.43440851 370.54306227 -776.21884232 370.5785769 -793.00341797 370.5949707 C-794.03454853 370.59598164 -795.06567909 370.59699258 -796.12805603 370.59803415 C-800.27404784 370.60205507 -804.42003969 370.60601749 -808.56603163 370.60989061 C-826.53492422 370.62699333 -844.50380238 370.65534097 -862.47267562 370.68642983 C-865.36758854 370.69140694 -868.2625017 370.69621492 -871.15741491 370.70101666 C-882.18812796 370.71971869 -893.2188044 370.74444882 -904.24948502 370.77713203 C-907.58104614 370.78685018 -910.91260057 370.79447293 -914.24417114 370.80004501 C-931.85110585 370.83078261 -949.4142679 371.02488678 -967 372 Z " fill="#000000" transform="translate(1364,60)"/>
<path d="M0 0 C1.41719846 -0.01612683 2.83439405 -0.03250683 4.25158691 -0.04911804 C17.0917278 -0.19269459 29.93275519 -0.26868225 42.77353191 -0.32803631 C52.24824346 -0.37270421 61.72151932 -0.45013833 71.19558877 -0.56962079 C77.8812036 -0.65107929 84.56642434 -0.69417904 91.25251418 -0.70933849 C95.23733221 -0.7194828 99.22032638 -0.74660302 103.20459557 -0.81564903 C106.94908033 -0.87984838 110.69082675 -0.89641071 114.43578339 -0.8771534 C116.45502001 -0.8788488 118.47402693 -0.9301079 120.49256897 -0.98309326 C129.21934147 -0.87399143 129.21934147 -0.87399143 133.09556007 2.42127037 C135.14383596 4.95038152 136.87025891 7.49886055 138.56762695 10.2722168 C139.6484026 11.74665916 140.74003252 13.21329688 141.84887695 14.66674805 C142.92338583 16.13824296 143.99625347 17.61093748 145.06762695 19.0847168 C150.15714594 26.04113357 155.32728467 32.92876014 160.56762695 39.7722168 C166.22133916 47.15849637 171.78233155 54.60416509 177.27856445 62.1081543 C181.64039728 68.04893113 186.08817244 73.9197494 190.56762695 79.7722168 C196.2211609 87.15863471 201.78232889 94.60416145 207.27856445 102.1081543 C211.64039728 108.04893113 216.08817244 113.9197494 220.56762695 119.7722168 C226.2211609 127.15863471 231.78232889 134.60416145 237.27856445 142.1081543 C241.64039859 148.04893291 246.08825104 153.91968769 250.56762695 159.7722168 C256.23993618 167.18504042 261.82909937 174.65149737 267.34887695 182.1784668 C271.55088789 187.90501686 275.79803063 193.59590663 280.06762695 199.2722168 C284.91972243 205.72294347 289.7317421 212.20055564 294.50512695 218.7097168 C300.11532535 226.35536133 305.84284125 233.90559761 311.60644531 241.43603516 C316.57435697 247.93825178 321.44349028 254.50684298 326.27856445 261.1081543 C330.64039728 267.04893113 335.08817244 272.9197494 339.56762695 278.7722168 C345.2211609 286.15863471 350.78232889 293.60416145 356.27856445 301.1081543 C360.64039728 307.04893113 365.08817244 312.9197494 369.56762695 318.7722168 C375.2211609 326.15863471 380.78232889 333.60416145 386.27856445 341.1081543 C390.64039728 347.04893113 395.08817244 352.9197494 399.56762695 358.7722168 C405.21830256 366.15490025 410.77786631 373.59581253 416.26977539 381.09716797 C420.71243798 387.15001193 425.25141333 393.12469639 429.81762695 399.0847168 C434.56332573 405.28098765 439.22220794 411.51285787 443.71020508 417.89770508 C448.11082648 424.11621085 452.7711042 430.13588466 457.40356445 436.18237305 C461.8548692 442.00074517 466.24010936 447.86129453 470.56762695 453.7722168 C475.49311849 460.49729897 480.50111403 467.15274972 485.56762695 473.7722168 C491.22053161 481.15781253 496.78196533 488.60188683 502.27636719 496.10595703 C506.65545302 502.0718029 511.12839956 507.96103439 515.63012695 513.8347168 C521.08958351 520.96118299 526.41477016 528.16412917 531.63647461 535.46606445 C536.47459666 542.20440013 541.50190043 548.79051336 546.54711914 555.37451172 C551.62839129 562.01422786 556.61448174 568.71793425 561.55957031 575.45947266 C565.19907576 580.41997994 568.86732536 585.35690914 572.56762695 590.2722168 C576.85844897 595.97194419 581.09786583 601.70721733 585.31762695 607.4597168 C590.32918375 614.28657084 595.4211132 621.04658871 600.56762695 627.7722168 C608.60882789 638.28369783 616.45822966 648.92852563 624.27661133 659.60620117 C630.97574777 668.74972035 637.73697011 677.83627702 644.63012695 686.8347168 C650.08875843 693.96050367 655.41454106 701.16176766 660.63427734 708.46386719 C664.83657783 714.31843142 669.18150093 720.05443961 673.56762695 725.7722168 C679.04907314 732.91785917 684.39722421 740.1373142 689.6340332 747.46362305 C693.83651997 753.31819307 698.18143086 759.05434826 702.56762695 764.7722168 C708.04907314 771.91785917 713.39722421 779.1373142 718.6340332 786.46362305 C722.83651997 792.31819307 727.18143086 798.05434826 731.56762695 803.7722168 C737.04907314 810.91785917 742.39722421 818.1373142 747.6340332 825.46362305 C751.83652195 831.31819582 756.18150592 837.05428817 760.56762695 842.7722168 C766.06833612 849.94475495 771.44414077 857.18735155 776.70654297 864.53613281 C780.73411043 870.14921046 784.84983211 875.69063287 789.00512695 881.2097168 C795.6742719 890.06770932 802.26877357 898.97793822 808.83374023 907.91333008 C811.74134323 911.86901301 814.6547909 915.82038669 817.56762695 919.7722168 C818.73432138 921.35552968 819.90098805 922.93886301 821.06762695 924.5222168 C821.64512695 925.3059668 822.22262695 926.0897168 822.81762695 926.8972168 C829.23429362 935.60555013 835.65096029 944.31388346 842.06762695 953.0222168 C842.64520752 953.80604736 843.22278809 954.58987793 843.81787109 955.39746094 C844.98383501 956.97989865 846.14968799 958.56241811 847.31542969 960.14501953 C850.24194139 964.11773566 853.17040229 968.08898674 856.1027832 972.05737305 C862.47253113 980.68178996 868.81437995 989.32453715 875.06665039 998.03466797 C877.39859751 1001.28232205 879.73828461 1004.51851611 882.1574707 1007.7019043 C882.89094727 1008.67385742 883.62442383 1009.64581055 884.38012695 1010.6472168 C885.00532227 1011.45932617 885.63051758 1012.27143555 886.2746582 1013.1081543 C887.56762695 1015.2722168 887.56762695 1015.2722168 887.56762695 1019.2722168 C883.6208779 1021.05197722 879.97973565 1021.78615127 875.69262695 1022.3347168 C873.93305664 1022.56868164 873.93305664 1022.56868164 872.13793945 1022.80737305 C848.39110151 1025.3837857 824.29269316 1025.07706985 800.42903805 1025.33877945 C792.68271109 1025.42580489 784.94030821 1025.54912772 777.19628906 1025.76049805 C770.39316044 1025.94613468 763.59278035 1026.06352608 756.78716093 1026.10056853 C753.19989673 1026.12230626 749.62014102 1026.17586438 746.03523064 1026.31165314 C724.4350867 1027.09725593 724.4350867 1027.09725593 718.01588821 1022.40826416 C713.67033271 1017.96987774 710.59242444 1012.98650352 707.75518894 1007.49073696 C706.17737806 1004.54318113 704.29070358 1002.08856762 702.19262695 999.4909668 C701.58797607 998.70262451 700.9833252 997.91428223 700.36035156 997.10205078 C699.47295288 995.94878296 699.47295288 995.94878296 698.56762695 994.7722168 C692.8934547 987.360842 687.30612623 979.89289763 681.78637695 972.3659668 C677.58436601 966.63941674 673.33722328 960.94852697 669.06762695 955.2722168 C664.21553148 948.82149012 659.4035118 942.34387796 654.63012695 935.8347168 C649.01992855 928.18907226 643.29241266 920.63883598 637.52880859 913.10839844 C632.56152382 906.60700231 627.69227461 900.03975602 622.85888672 893.43847656 C618.47980089 887.47263069 614.00685434 881.5833992 609.50512695 875.7097168 C604.04567039 868.5832506 598.72048374 861.38030443 593.4987793 854.07836914 C588.65792652 847.33623022 583.62798984 840.74621409 578.5793457 834.15893555 C574.17817515 828.4087472 569.8454177 822.61468026 565.56762695 816.7722168 C560.64210004 810.04715386 555.63396244 803.39182401 550.56762695 796.7722168 C542.52632066 786.26081881 534.67702221 775.61590518 526.85864258 764.93823242 C519.51573884 754.91604796 512.08026696 744.97495961 504.52905273 735.10864258 C499.56160899 728.60722345 494.69234192 722.03984795 489.85888672 715.43847656 C485.47980089 709.47263069 481.00685434 703.5833992 476.50512695 697.7097168 C471.04567039 690.5832506 465.72048374 683.38030443 460.4987793 676.07836914 C455.65792652 669.33623022 450.62798984 662.74621409 445.5793457 656.15893555 C441.17817515 650.4087472 436.8454177 644.61468026 432.56762695 638.7722168 C427.64210004 632.04715386 422.63396244 625.39182401 417.56762695 618.7722168 C409.52632066 608.26081881 401.67702221 597.61590518 393.85864258 586.93823242 C386.51573884 576.91604796 379.08026696 566.97495961 371.52905273 557.10864258 C366.56098208 550.60640293 361.69183097 544.03768255 356.85668945 537.4362793 C352.49485401 531.4954989 348.04692424 525.62480763 343.56762695 519.7722168 C335.52632066 509.26081881 327.67702221 498.61590518 319.85864258 487.93823242 C312.51573884 477.91604796 305.08026696 467.97495961 297.52905273 458.10864258 C292.56383455 451.61013626 287.69648083 445.04589371 282.86547852 438.44726562 C278.42281593 432.39442167 273.88384058 426.4197372 269.31762695 420.4597168 C264.57192818 414.26344594 259.91304597 408.03157573 255.42504883 401.64672852 C251.02442743 395.42822274 246.36414971 389.40854893 241.73168945 383.36206055 C237.2803847 377.54368842 232.89514455 371.68313907 228.56762695 365.7722168 C223.64213239 359.04713049 218.63396192 352.39182333 213.56762695 345.7722168 C205.52632066 335.26081881 197.67702221 324.61590518 189.85864258 313.93823242 C183.17699173 304.81857898 176.43670843 295.75181779 169.56762695 286.7722168 C161.52660381 276.26059605 153.67702755 265.61591246 145.85864258 254.93823242 C139.17699173 245.81857898 132.43670843 236.75181779 125.56762695 227.7722168 C117.52660381 217.26059605 109.67702755 206.61591246 101.85864258 195.93823242 C95.15950614 186.79471325 88.3982838 177.70815658 81.50512695 168.7097168 C76.04586011 161.58310049 70.72048843 154.38031099 65.4987793 147.07836914 C61.31341299 141.24916458 56.99391484 135.53127693 52.63012695 129.8347168 C45.73819208 120.8378722 38.97861829 111.75273164 32.28100586 102.6105957 C29.40224068 98.68172524 26.5173262 94.75739237 23.63012695 90.8347168 C23.05504395 90.05338379 22.47996094 89.27205078 21.88745117 88.46704102 C17.64487112 82.71220742 13.36361062 76.98726087 9.06762695 71.2722168 C2.42853851 62.44008753 -4.13927026 53.55753674 -10.6809082 44.65307617 C-13.07743517 41.39534952 -15.48231396 38.14382367 -17.88696289 34.89208984 C-19.64279892 32.51333075 -21.39172969 30.12963224 -23.1394043 27.74487305 C-25.25670628 24.85707911 -27.3996197 21.99207749 -29.5690918 19.14331055 C-30.50291696 17.89478568 -31.43652492 16.64609832 -32.36987305 15.3972168 C-32.80138672 14.84445068 -33.23290039 14.29168457 -33.67749023 13.72216797 C-35.64359718 11.05962778 -36.47308979 9.74918431 -36.1862793 6.3894043 C-35.93749023 5.69073242 -35.68870117 4.99206055 -35.43237305 4.2722168 C-33.99992205 3.77816103 -32.5609186 3.30311263 -31.11987305 2.8347168 C-30.31936523 2.56788086 -29.51885742 2.30104492 -28.6940918 2.02612305 C-19.3366232 -0.13674095 -9.55273934 0.08877002 0 0 Z " fill="#000000" transform="translate(599.432373046875,511.727783203125)"/>
</svg>
